<?xml version="1.0" encoding="UTF-8" standalone="no"?>
<!-- Created with Inkscape (http://www.inkscape.org/) -->

<svg
   xmlns:svg="http://www.w3.org/2000/svg"
   xmlns="http://www.w3.org/2000/svg"
   xmlns:xlink="http://www.w3.org/1999/xlink"
   version="1.0"
   width="48"
   height="48"
   id="svg4486">
  <defs
     id="defs4488">
    <radialGradient
       cx="18.240929"
       cy="21.817987"
       r="8.3085051"
       fx="18.240929"
       fy="21.817987"
       id="radialGradient5828"
       xlink:href="#linearGradient4454-600"
       gradientUnits="userSpaceOnUse" />
    <linearGradient
       id="linearGradient6209-717">
      <stop
         id="stop3366"
         style="stop-color:#979797;stop-opacity:1"
         offset="0" />
      <stop
         id="stop3368"
         style="stop-color:#000000;stop-opacity:0.34117648"
         offset="1" />
    </linearGradient>
    <linearGradient
       id="linearGradient11104-770">
      <stop
         id="stop3402"
         style="stop-color:#333333;stop-opacity:1"
         offset="0" />
      <stop
         id="stop3404"
         style="stop-color:#333333;stop-opacity:0.6122449"
         offset="1" />
    </linearGradient>
    <linearGradient
       id="linearGradient2300-465">
      <stop
         id="stop3396"
         style="stop-color:#343434;stop-opacity:0.97647059"
         offset="0" />
      <stop
         id="stop3398"
         style="stop-color:#929292;stop-opacity:1"
         offset="1" />
    </linearGradient>
    <linearGradient
       id="linearGradient4467-402">
      <stop
         id="stop3390"
         style="stop-color:#ffffff;stop-opacity:1"
         offset="0" />
      <stop
         id="stop3392"
         style="stop-color:#ffffff;stop-opacity:0.24761905"
         offset="1" />
    </linearGradient>
    <linearGradient
       id="linearGradient4454-600">
      <stop
         id="stop3408"
         style="stop-color:#a1a1a1;stop-opacity:0.20784314"
         offset="0" />
      <stop
         id="stop3410"
         style="stop-color:#a1a1a1;stop-opacity:0.67843139"
         offset="1" />
    </linearGradient>
    <linearGradient
       id="linearGradient12093-170">
      <stop
         id="stop3384"
         style="stop-color:#ffffff;stop-opacity:1"
         offset="0" />
      <stop
         id="stop3386"
         style="stop-color:#ffffff;stop-opacity:0"
         offset="1" />
    </linearGradient>
    <linearGradient
       id="linearGradient3277-442">
      <stop
         id="stop3378"
         style="stop-color:#575757;stop-opacity:1"
         offset="0" />
      <stop
         id="stop3380"
         style="stop-color:#333333;stop-opacity:1"
         offset="1" />
    </linearGradient>
    <linearGradient
       id="linearGradient11114-516">
      <stop
         id="stop3372"
         style="stop-color:#242424;stop-opacity:0.99215686"
         offset="0" />
      <stop
         id="stop3374"
         style="stop-color:#656565;stop-opacity:1"
         offset="1" />
    </linearGradient>
    <linearGradient
       id="linearGradient5048">
      <stop
         id="stop5050"
         style="stop-color:#000000;stop-opacity:0"
         offset="0" />
      <stop
         id="stop5056"
         style="stop-color:#000000;stop-opacity:1"
         offset="0.5" />
      <stop
         id="stop5052"
         style="stop-color:#000000;stop-opacity:0"
         offset="1" />
    </linearGradient>
    <linearGradient
       id="linearGradient5060">
      <stop
         id="stop5062"
         style="stop-color:#000000;stop-opacity:1"
         offset="0" />
      <stop
         id="stop5064"
         style="stop-color:#000000;stop-opacity:0"
         offset="1" />
    </linearGradient>
    <linearGradient
       id="linearGradient3104">
      <stop
         id="stop3106"
         style="stop-color:#aaaaaa;stop-opacity:1"
         offset="0" />
      <stop
         id="stop3108"
         style="stop-color:#c8c8c8;stop-opacity:1"
         offset="1" />
    </linearGradient>
    <linearGradient
       id="linearGradient3600">
      <stop
         id="stop3602"
         style="stop-color:#f4f4f4;stop-opacity:1"
         offset="0" />
      <stop
         id="stop3604"
         style="stop-color:#dbdbdb;stop-opacity:1"
         offset="1" />
    </linearGradient>
    <radialGradient
       cx="102"
       cy="112.3047"
       r="139.55859"
       id="XMLID_8_"
       gradientUnits="userSpaceOnUse">
      <stop
         id="stop41"
         style="stop-color:#b7b8b9;stop-opacity:1"
         offset="0" />
      <stop
         id="stop47"
         style="stop-color:#ececec;stop-opacity:1"
         offset="0.18851049" />
      <stop
         id="stop49"
         style="stop-color:#fafafa;stop-opacity:0"
         offset="0.25718147" />
      <stop
         id="stop51"
         style="stop-color:#ffffff;stop-opacity:0"
         offset="0.30111277" />
      <stop
         id="stop53"
         style="stop-color:#fafafa;stop-opacity:0"
         offset="0.53130001" />
      <stop
         id="stop55"
         style="stop-color:#ebecec;stop-opacity:0"
         offset="0.84490001" />
      <stop
         id="stop57"
         style="stop-color:#e1e2e3;stop-opacity:0"
         offset="1" />
    </radialGradient>
    <linearGradient
       id="linearGradient3211">
      <stop
         id="stop3213"
         style="stop-color:#ffffff;stop-opacity:1"
         offset="0" />
      <stop
         id="stop3215"
         style="stop-color:#ffffff;stop-opacity:0"
         offset="1" />
    </linearGradient>
    <linearGradient
       id="linearGradient8589">
      <stop
         id="stop8591"
         style="stop-color:#fefefe;stop-opacity:1"
         offset="0" />
      <stop
         id="stop8593"
         style="stop-color:#cbcbcb;stop-opacity:1"
         offset="1" />
    </linearGradient>
    <linearGradient
       x1="32.892288"
       y1="8.0590115"
       x2="36.358372"
       y2="5.4565363"
       id="linearGradient3312"
       xlink:href="#linearGradient8589"
       gradientUnits="userSpaceOnUse"
       gradientTransform="matrix(0.9976985,0,0,1.0406866,0.1638029,-1.1057939)" />
    <linearGradient
       x1="24"
       y1="1.9999999"
       x2="24"
       y2="46.01725"
       id="linearGradient3316"
       xlink:href="#linearGradient3211"
       gradientUnits="userSpaceOnUse"
       gradientTransform="matrix(1,0,0,0.9777778,0,-0.9666693)" />
    <radialGradient
       cx="102"
       cy="112.3047"
       r="139.55859"
       id="radialGradient3319"
       xlink:href="#XMLID_8_"
       gradientUnits="userSpaceOnUse"
       gradientTransform="matrix(0.3617022,0,0,-0.3907784,0.8510637,47.517004)" />
    <linearGradient
       x1="25.132275"
       y1="0.98520643"
       x2="25.132275"
       y2="47.013336"
       id="linearGradient3322"
       xlink:href="#linearGradient3600"
       gradientUnits="userSpaceOnUse"
       gradientTransform="matrix(1,0,0,0.9561695,-1.0064697e-7,-1.914922)" />
    <linearGradient
       x1="-51.786404"
       y1="50.786446"
       x2="-51.786404"
       y2="2.9062471"
       id="linearGradient3324"
       xlink:href="#linearGradient3104"
       gradientUnits="userSpaceOnUse"
       gradientTransform="matrix(0.8074968,0,0,0.8948322,59.410232,-2.9805533)" />
    <radialGradient
       cx="605.71429"
       cy="486.64789"
       r="117.14286"
       fx="605.71429"
       fy="486.64789"
       id="radialGradient3327"
       xlink:href="#linearGradient5060"
       gradientUnits="userSpaceOnUse"
       gradientTransform="matrix(0.02303995,0,0,0.01470022,26.360882,37.040176)" />
    <radialGradient
       cx="605.71429"
       cy="486.64789"
       r="117.14286"
       fx="605.71429"
       fy="486.64789"
       id="radialGradient3330"
       xlink:href="#linearGradient5060"
       gradientUnits="userSpaceOnUse"
       gradientTransform="matrix(-0.02303994,0,0,0.01470022,21.62311,37.040176)" />
    <linearGradient
       x1="302.85715"
       y1="366.64789"
       x2="302.85715"
       y2="609.50507"
       id="linearGradient3333"
       xlink:href="#linearGradient5048"
       gradientUnits="userSpaceOnUse"
       gradientTransform="matrix(0.06732488,0,0,0.01470022,-0.3411391,37.040146)" />
    <filter
       x="-0.14846256"
       y="-0.16434373"
       width="1.2969251"
       height="1.3286875"
       color-interpolation-filters="sRGB"
       id="filter3212">
      <feGaussianBlur
         stdDeviation="0.77391625"
         id="feGaussianBlur3214" />
    </filter>
    <linearGradient
       x1="173.09576"
       y1="75.31868"
       x2="173.09576"
       y2="11.949074"
       id="linearGradient2818"
       xlink:href="#linearGradient6209-717"
       gradientUnits="userSpaceOnUse"
       gradientTransform="matrix(0.2861419,0,0,0.2833094,-22.84742,14.708773)" />
    <linearGradient
       x1="173.09576"
       y1="75.31868"
       x2="173.09576"
       y2="11.949074"
       id="linearGradient2821"
       xlink:href="#linearGradient2300-465"
       gradientUnits="userSpaceOnUse"
       gradientTransform="matrix(0.3004586,0,0,0.2974845,-25.404767,14.268827)" />
    <linearGradient
       x1="41.541653"
       y1="68.291702"
       x2="41.485142"
       y2="4.5362983"
       id="linearGradient2823"
       xlink:href="#linearGradient11104-770"
       gradientUnits="userSpaceOnUse"
       gradientTransform="matrix(0.3004586,0,0,0.2974845,13.568071,16.507666)" />
    <radialGradient
       cx="15.414371"
       cy="13.078408"
       r="6.65625"
       fx="15.414371"
       fy="13.078408"
       id="radialGradient2826"
       xlink:href="#linearGradient4467-402"
       gradientUnits="userSpaceOnUse"
       gradientTransform="matrix(2.2852324,0,0,1.7582798,-11.39792,-1.3673982)" />
    <linearGradient
       x1="277.573"
       y1="146.1507"
       x2="201.87128"
       y2="67.350082"
       id="linearGradient2831"
       xlink:href="#linearGradient12093-170"
       gradientUnits="userSpaceOnUse"
       gradientTransform="matrix(0.2929324,0,0,0.2900327,-24.195615,14.164716)" />
    <linearGradient
       x1="-172.65306"
       y1="99.667191"
       x2="-164.71831"
       y2="91.972626"
       id="linearGradient2834"
       xlink:href="#linearGradient11114-516"
       gradientUnits="userSpaceOnUse"
       gradientTransform="matrix(0.2929324,0,0,0.2900327,88.604961,11.361827)" />
    <linearGradient
       x1="32.892574"
       y1="27.988184"
       x2="31.364458"
       y2="29.484051"
       id="linearGradient2836"
       xlink:href="#linearGradient3277-442"
       gradientUnits="userSpaceOnUse"
       gradientTransform="matrix(0.7525742,0,0,0.7451247,13.056486,15.866532)" />
  </defs>
  <rect
     width="32.508301"
     height="3.5700529"
     x="7.7378473"
     y="42.429947"
     id="rect2879"
     style="opacity:0.3;fill:url(#linearGradient3333);fill-opacity:1;fill-rule:nonzero;stroke:none;stroke-width:1;marker:none;visibility:visible;display:inline;overflow:visible" />
  <path
     d="m 7.7378475,42.430102 c 0,0 0,3.569856 0,3.569856 -1.1865002,0.0067 -2.8683795,-0.799823 -2.8683795,-1.785158 0,-0.985333 1.3240446,-1.784697 2.8683795,-1.784698 z"
     id="path2881"
     style="opacity:0.3;fill:url(#radialGradient3330);fill-opacity:1;fill-rule:nonzero;stroke:none;stroke-width:1;marker:none;visibility:visible;display:inline;overflow:visible" />
  <path
     d="m 40.246148,42.430102 c 0,0 0,3.569856 0,3.569856 1.1865,0.0067 2.86838,-0.799823 2.86838,-1.785158 0,-0.985333 -1.324045,-1.784697 -2.86838,-1.784698 z"
     id="path2883"
     style="opacity:0.3;fill:url(#radialGradient3327);fill-opacity:1;fill-rule:nonzero;stroke:none;stroke-width:1;marker:none;visibility:visible;display:inline;overflow:visible" />
  <path
     d="m 6.4999609,0.49719878 c 8.0202951,0 16.0405901,0 24.0608861,0 1.406933,0.4746531 8.965454,5.88220462 10.939195,9.62640622 0,11.459733 0,22.919465 0,34.379198 -11.666694,0 -23.333387,0 -35.0000811,0 0,-14.668535 0,-29.33707 0,-44.00560422 z"
     id="path4160"
     style="fill:url(#linearGradient3322);fill-opacity:1;stroke:url(#linearGradient3324);stroke-width:0.99992186;stroke-linecap:butt;stroke-linejoin:round;stroke-miterlimit:4;stroke-opacity:1;stroke-dasharray:none;stroke-dashoffset:0;display:inline" />
  <path
     d="m 7.3617017,44 c -0.199297,0 -0.361702,-0.175459 -0.361702,-0.39078 l 0,-42.2040499 c 0,-0.2157088 0.162405,-0.3907775 0.361702,-0.3907775 C 14.844793,1.1224073 23.137385,0.85281757 30.611384,1.0412872 L 40.894021,9.9073127 41,43.60922 C 41,43.824541 40.837957,44 40.638297,44 L 7.3617017,44 z"
     id="path4191"
     style="fill:url(#radialGradient3319);fill-opacity:1" />
  <path
     d="m 40.500039,10.258811 c 0,10.949037 0,22.31441 0,33.263447 -11.000026,0 -22.000052,0 -33.0000781,0 0,-14.014841 0,-28.029681 0,-42.0445213 7.5619931,0 15.3043341,0 22.8663281,0"
     id="path2435"
     style="opacity:0.6;fill:none;stroke:url(#linearGradient3316);stroke-width:0.9999218;stroke-linecap:butt;stroke-linejoin:round;stroke-miterlimit:4;stroke-opacity:1;stroke-dasharray:none;stroke-dashoffset:0;display:inline" />
  <path
     d="m 28.617256,0.92125832 c 4.282522,0 2.15325,8.48317128 2.15325,8.48317128 0,0 10.357642,-1.8023467 10.357642,2.8187444 0,-2.6097233 -11.302304,-10.7285956 -12.510892,-11.30191568 z"
     id="path12038"
     style="opacity:0.4;fill:#000000;fill-opacity:1;fill-rule:evenodd;stroke:none;display:inline;filter:url(#filter3212)" />
  <path
     d="m 28.617256,0.92125832 c 3.186493,0 2.33576,7.66187848 2.33576,7.66187848 0,0 10.175132,-0.9810539 10.175132,3.6400372 0,-1.125939 0.08591,-1.932245 -0.133777,-2.2835928 C 39.416058,7.4154025 32.598855,1.7511811 30.137071,1.008793 29.952849,0.95323837 29.544367,0.92125832 28.617256,0.92125832 z"
     id="path4474"
     style="fill:url(#linearGradient3312);fill-opacity:1;fill-rule:evenodd;stroke:none;display:inline" />
  <path
     d="M 34.138851,32.949914 47.236654,45.019282 45.421116,47.458831 32.370749,34.403003 34.138851,32.949914 z"
     id="path11112"
     style="fill:url(#linearGradient2834);fill-opacity:1;fill-rule:evenodd;stroke:url(#linearGradient2836);stroke-width:0.93605024;stroke-linecap:round;stroke-linejoin:round;stroke-miterlimit:4;stroke-opacity:1;stroke-dasharray:none;display:inline" />
  <path
     d="M 45.443191,46.666592 34.939015,33.698442 47.647774,44.74063 45.443191,46.666592 z"
     id="path11122"
     style="fill:url(#linearGradient2831);fill-opacity:1;fill-rule:evenodd;stroke:none;display:inline" />
  <path
     d="m 247.90924,110.29199 a 4.86685,2.6562012 0 1 1 -9.7337,0 4.86685,2.6562012 0 1 1 9.7337,0 z"
     transform="matrix(0.275472,-0.3088431,0.3530977,0.2301519,-59.38847,96.055097)"
     id="path13082"
     style="fill:#3e3e3e;fill-opacity:1;stroke:none;display:inline" />
  <path
     d="m 25.897786,18.478292 a 8.3085051,8.3085051 0 1 1 -16.61701,0 8.3085051,8.3085051 0 1 1 16.61701,0 z"
     transform="matrix(1.1079784,0,0,1.0703357,7.5804984,7.0727343)"
     id="path4340"
     style="fill:url(#radialGradient5828);fill-opacity:1;fill-rule:evenodd;stroke:none;stroke-width:0.88163906;marker:none;visibility:visible;display:inline" />
  <path
     d="m 26.68983,19.195167 c -4.589557,0 -8.306051,3.292295 -8.306051,7.358005 0,1.174194 0.102908,2.387 0.655373,3.37238 1.103749,0.360394 2.543761,0.473161 3.788194,0.473161 5.438592,0 10.116431,-3.99427 10.452059,-8.737574 -1.525536,-1.597003 -4.044797,-2.465972 -6.589575,-2.465972 z"
     id="path4342"
     style="opacity:0.83422457;fill:url(#radialGradient2826);fill-opacity:1;fill-rule:evenodd;stroke:none;stroke-width:1;marker:none;visibility:visible;display:inline;overflow:visible" />
  <path
     d="m 26.866667,17.970308 c -5.65359,0 -10.243764,4.190722 -10.243761,9.352168 0,5.161445 4.590171,9.352166 10.243761,9.352167 5.653584,0 10.243759,-4.190722 10.243759,-9.352167 0,-5.161446 -4.590172,-9.352168 -10.243759,-9.352168 z m 0.12206,0.613562 c 5.059997,0 9.173377,3.747223 9.173377,8.36675 0,4.619527 -4.11338,8.36675 -9.173377,8.36675 -5.059999,1e-6 -9.163987,-3.747222 -9.163987,-8.36675 0,-4.619527 4.103988,-8.36675 9.163987,-8.36675 z"
     id="path2298"
     style="fill:url(#linearGradient2821);fill-opacity:1;stroke:url(#linearGradient2823);stroke-width:0.96009994;stroke-linecap:round;stroke-linejoin:round;stroke-miterlimit:4;stroke-opacity:1;stroke-dasharray:none;display:inline" />
  <path
     d="m 26.932391,18.239903 c -5.384196,0 -9.746125,3.990435 -9.746125,8.905941 0,4.915506 4.361926,8.905941 9.746125,8.905941 5.384197,0 9.755515,-3.990436 9.755515,-8.905941 0,-4.915506 -4.371321,-8.905941 -9.755515,-8.905941 z m 0.05634,0.343967 c 5.059996,0 8.772096,3.747223 8.772096,8.36675 0,4.619527 -3.7121,7.969441 -8.772096,7.969441 -5.059999,1e-6 -8.829585,-3.349913 -8.829585,-7.969441 0,-4.619527 3.769586,-8.36675 8.829585,-8.36675 z"
     id="path4267"
     style="fill:url(#linearGradient2818);fill-opacity:1;stroke:none;display:inline" />
</svg>
