/* XPM */
static char * close_prelight_xpm[] = {
"22 21 36 1",
" 	c None",
".	c #000000",
"+	c #0A0A0A",
"@	c #311711",
"#	c #4F2118",
"$	c #58241A",
"%	c #512118",
"&	c #56261D",
"*	c #4F281D",
"=	c #4C291D",
"-	c #512119",
";	c #53271C",
">	c #49291E",
",	c #432B1F",
"'	c #402D20",
")	c #331A12",
"!	c #DD4E4C",
"~	c #944139",
"{	c #95423A",
"]	c #DC4E4C",
"^	c #341912",
"/	c #8D4038",
"(	c #FE5656",
"_	c #92463D",
":	c #93453D",
"<	c #4E2118",
"[	c #59241A",
"}	c #8B443A",
"|	c #8A443B",
"1	c #59251A",
"2	c #88433A",
"3	c #87443A",
"4	c #8B3F37",
"5	c #8A3F37",
"6	c #311810",
"7	c #5A241A",
"......................",
"++++++++++++++++++++++",
"++++++++++++++++++++++",
"++++++++....++++++++++",
"++++++.@#$$#@.++++++++",
"+++++.%&*==*&%.+++++++",
"++++.-;>,,',>;%.++++++",
"++++)&>!~,,{]>&^++++++",
"+++.#*,/(_:(/,*<.+++++",
"+++.[=,,}((|,,=1.+++++",
"+++.[=',2((3,,=1.+++++",
"+++.#*,4(_:(5,*<.+++++",
"++++6&>!~,,{]>&@++++++",
"++++.-;>,',,>;%.++++++",
"+++++.%&*==*&%.+++++++",
"++++++.@#77#@.++++++++",
"++++++++....++++++++++",
"++++++++++++++++++++++",
"++++++++++++++++++++++",
"++++++++++++++++++++++",
"++++++++++++++++++++++"};
