/* XPM */
static char * close_active_xpm[] = {
"22 21 18 1",
" 	c None",
".	c #000000",
"+	c #0A0A0A",
"@	c #ADB9BC",
"#	c #75807B",
"$	c #76807B",
"%	c #ACB9BC",
"&	c #707A74",
"*	c #C8D6DD",
"=	c #79837E",
"-	c #7A847E",
";	c #6F7973",
">	c #737E76",
",	c #727D75",
"'	c #727C74",
")	c #717C74",
"!	c #6F7971",
"~	c #6E7871",
"......................",
"++++++++++++++++++++++",
"++++++++++++++++++++++",
"++++++++....++++++++++",
"++++++..++++..++++++++",
"+++++.++++++++.+++++++",
"++++.++++++++++.++++++",
"++++.++@#++$%++.++++++",
"+++.+++&*=-*;+++.+++++",
"+++.++++>**,++++.+++++",
"+++.++++'**)++++.+++++",
"+++.+++!*=-*~+++.+++++",
"++++.++@#++$%++.++++++",
"++++.++++++++++.++++++",
"+++++.++++++++.+++++++",
"++++++..++++..++++++++",
"++++++++....++++++++++",
"++++++++++++++++++++++",
"++++++++++++++++++++++",
"++++++++++++++++++++++",
"++++++++++++++++++++++"};
