/* XPM */
static char * close_inactive_xpm[] = {
"22 21 6 1",
" 	c None",
".	c #000000",
"+	c #0A0A0A",
"@	c #545C52",
"#	c #5F6960",
"$	c #626D62",
"......................",
"++++++++++++++++++++++",
"++++++++++++++++++++++",
"++++++++....++++++++++",
"++++++..++++..++++++++",
"+++++.++++++++.+++++++",
"++++.++++++++++.++++++",
"++++.++@++++@++.++++++",
"+++.++++#++#++++.+++++",
"+++.+++++$$+++++.+++++",
"+++.+++++$$+++++.+++++",
"+++.++++#++#++++.+++++",
"++++.++$++++@++.++++++",
"++++.++++++++++.++++++",
"+++++.++++++++.+++++++",
"++++++..++++..++++++++",
"++++++++....++++++++++",
"++++++++++++++++++++++",
"++++++++++++++++++++++",
"++++++++++++++++++++++",
"++++++++++++++++++++++"};
