/* XPM */
static char * close_pressed_xpm[] = {
"22 21 13 1",
" 	c None",
".	c #000000",
"+	c #0A0A0A",
"@	c #642C2E",
"#	c #D24A4B",
"$	c #D74B4C",
"%	c #D84B4C",
"&	c #D1494A",
"*	c #D94C4C",
"=	c #D84B4B",
"-	c #FE5656",
";	c #D94B4C",
">	c #652E30",
"......................",
"++++++++++++++++++++++",
"++++++++++++++++++++++",
"++++++++....++++++++++",
"++++++..++++..++++++++",
"+++++.++++++++.+++++++",
"++++.++++++++++.++++++",
"++++.++@++++@++.++++++",
"+++.+++#$++%&+++.+++++",
"+++.++++*==*++++.+++++",
"+++.+++++--+++++.+++++",
"+++.++++*==*++++.+++++",
"++++.++#%++;&++.++++++",
"++++.++>++++>++.++++++",
"+++++.++++++++.+++++++",
"++++++..++++..++++++++",
"++++++++....++++++++++",
"++++++++++++++++++++++",
"++++++++++++++++++++++",
"++++++++++++++++++++++",
"++++++++++++++++++++++"};
