/* XPM */
static char * hide_pressed_xpm[] = {
"22 21 9 1",
" 	c None",
".	c #000000",
"+	c #0A0A0A",
"@	c #8AC83D",
"#	c #84BE3B",
"$	c #84BF3B",
"%	c #89C73D",
"&	c #8FCF3F",
"*	c #8ECE3E",
"......................",
"++++++++++++++++++++++",
"++++++++++++++++++++++",
"++++++++....++++++++++",
"++++++..++++..++++++++",
"+++++.++++++++.+++++++",
"++++.++++++++++.++++++",
"++++.++++++++++.++++++",
"+++.++........++.+++++",
"+++.++.@#..$%.++.+++++",
"+++.++..&$$&..++.+++++",
"+++.+++..&*..+++.+++++",
"++++.+++....+++.++++++",
"++++.++++++++++.++++++",
"+++++.++++++++.+++++++",
"++++++..++++..++++++++",
"++++++++....++++++++++",
"++++++++++++++++++++++",
"++++++++++++++++++++++",
"++++++++++++++++++++++",
"++++++++++++++++++++++"};
