/* XPM */
static char * hide_prelight_xpm[] = {
"22 21 15 1",
" 	c None",
".	c #000000",
"+	c #0A0A0A",
"@	c #080808",
"#	c #87C645",
"$	c #5A894A",
"%	c #639347",
"&	c #9EE744",
"*	c #5C8F53",
"=	c #5B8F52",
"-	c #629147",
";	c #669C4B",
">	c #63964C",
",	c #699F4B",
"'	c #669B4B",
"......................",
"++++++++++++++++++++++",
"++++++++++++++++++++++",
"++++++++....++++++++++",
"++++++..@@@@..++++++++",
"+++++.@@@@@@@@.+++++++",
"++++.@@@@@@@@@@.++++++",
"++++.@@@@@@@@@@.++++++",
"+++.@@@#$@@$#@@@.+++++",
"+++.@@@%&*=&-@@@.+++++",
"+++.@@@@;&&>@@@@.+++++",
"+++.@@@@@,'@@@@@.+++++",
"++++.@@@@@@@@@@.++++++",
"++++.@@@@@@@@@@.++++++",
"+++++.@@@@@@@@.+++++++",
"++++++..@@@@..++++++++",
"++++++++....++++++++++",
"++++++++++++++++++++++",
"++++++++++++++++++++++",
"++++++++++++++++++++++",
"++++++++++++++++++++++"};
