/* XPM */
static char * hide_active_xpm[] = {
"22 21 15 1",
" 	c None",
".	c #000000",
"+	c #0A0A0A",
"@	c #A9B5B8",
"#	c #6E7871",
"$	c #6E7972",
"%	c #79837D",
"&	c #C8D6DD",
"*	c #717C74",
"=	c #727D75",
"-	c #77817C",
";	c #808B85",
">	c #7B857E",
",	c #838D89",
"'	c #7F8A84",
"......................",
"++++++++++++++++++++++",
"++++++++++++++++++++++",
"++++++++....++++++++++",
"++++++..++++..++++++++",
"+++++.++++++++.+++++++",
"++++.++++++++++.++++++",
"++++.++++++++++.++++++",
"+++.+++@#++$@+++.+++++",
"+++.+++%&*=&-+++.+++++",
"+++.++++;&&>++++.+++++",
"+++.+++++,'+++++.+++++",
"++++.++++++++++.++++++",
"++++.++++++++++.++++++",
"+++++.++++++++.+++++++",
"++++++..++++..++++++++",
"++++++++....++++++++++",
"++++++++++++++++++++++",
"++++++++++++++++++++++",
"++++++++++++++++++++++",
"++++++++++++++++++++++"};
