/* XPM */
static char * maximize_prelight_xpm[] = {
"22 21 18 1",
" 	c None",
".	c #000000",
"+	c #0A0A0A",
"@	c #080808",
"#	c #5F924D",
"$	c #61954C",
"%	c #5B8E4D",
"&	c #9EE744",
"*	c #9FE844",
"=	c #5E914D",
"-	c #5B8A48",
";	c #639851",
">	c #639852",
",	c #5C8947",
"'	c #8ACA45",
")	c #619249",
"!	c #629349",
"~	c #8ACA44",
"......................",
"++++++++++++++++++++++",
"++++++++++++++++++++++",
"++++++++....++++++++++",
"++++++..@@@@..++++++++",
"+++++.@@@@@@@@.+++++++",
"++++.@@@@@@@@@@.++++++",
"++++.@@@@@@@@@@.++++++",
"+++.@@@@@#$@@@@@.+++++",
"+++.@@@@%&*=@@@@.+++++",
"+++.@@@-&;>&,@@@.+++++",
"+++.@@@')@@!~@@@.+++++",
"++++.@@@@@@@@@@.++++++",
"++++.@@@@@@@@@@.++++++",
"+++++.@@@@@@@@.+++++++",
"++++++..@@@@..++++++++",
"++++++++....++++++++++",
"++++++++++++++++++++++",
"++++++++++++++++++++++",
"++++++++++++++++++++++",
"++++++++++++++++++++++"};
