/* XPM */
static char * maximize_active_xpm[] = {
"22 21 17 1",
" 	c None",
".	c #000000",
"+	c #0A0A0A",
"@	c #75807A",
"#	c #77837C",
"$	c #727C74",
"%	c #C8D6DD",
"&	c #C9D7DE",
"*	c #748079",
"=	c #707A72",
"-	c #7B857F",
";	c #7B8680",
">	c #717A73",
",	c #ADBABD",
"'	c #77827C",
")	c #78827D",
"!	c #ADB9BC",
"......................",
"++++++++++++++++++++++",
"++++++++++++++++++++++",
"++++++++....++++++++++",
"++++++..++++..++++++++",
"+++++.++++++++.+++++++",
"++++.++++++++++.++++++",
"++++.++++++++++.++++++",
"+++.+++++@#+++++.+++++",
"+++.++++$%&*++++.+++++",
"+++.+++=%-;%>+++.+++++",
"+++.+++,'++)!+++.+++++",
"++++.++++++++++.++++++",
"++++.++++++++++.++++++",
"+++++.++++++++.+++++++",
"++++++..++++..++++++++",
"++++++++....++++++++++",
"++++++++++++++++++++++",
"++++++++++++++++++++++",
"++++++++++++++++++++++",
"++++++++++++++++++++++"};
