/* XPM */
static char * maximize_pressed_xpm[] = {
"22 21 9 1",
" 	c None",
".	c #000000",
"+	c #0A0A0A",
"@	c #8AC83D",
"#	c #89C73D",
"$	c #85C13C",
"%	c #89C63D",
"&	c #84C03C",
"*	c #456129",
"......................",
"++++++++++++++++++++++",
"++++++++++++++++++++++",
"++++++++....++++++++++",
"++++++..++++..++++++++",
"+++++.++++++++.+++++++",
"++++.++++++++++.++++++",
"++++.++++++++++.++++++",
"+++.++++....++++.+++++",
"+++.+++..@#..+++.+++++",
"+++.++..@##@..++.+++++",
"+++.++.$%..#&.++.+++++",
"++++.+.*....*.+.++++++",
"++++.+...++...+.++++++",
"+++++.++++++++.+++++++",
"++++++..++++..++++++++",
"++++++++....++++++++++",
"++++++++++++++++++++++",
"++++++++++++++++++++++",
"++++++++++++++++++++++",
"++++++++++++++++++++++"};
