/* XPM */
static char * maximize_inactive_xpm[] = {
"22 21 7 1",
" 	c None",
".	c #000000",
"+	c #0A0A0A",
"@	c #626D62",
"#	c #636D62",
"$	c #606B60",
"%	c #555E54",
"......................",
"++++++++++++++++++++++",
"++++++++++++++++++++++",
"++++++++....++++++++++",
"++++++..++++..++++++++",
"+++++.++++++++.+++++++",
"++++.++++++++++.++++++",
"++++.++++++++++.++++++",
"+++.++++++++++++.+++++",
"+++.+++++@#+++++.+++++",
"+++.++++$++$++++.+++++",
"+++.+++%++++%+++.+++++",
"++++.++++++++++.++++++",
"++++.++++++++++.++++++",
"+++++.++++++++.+++++++",
"++++++..++++..++++++++",
"++++++++....++++++++++",
"++++++++++++++++++++++",
"++++++++++++++++++++++",
"++++++++++++++++++++++",
"++++++++++++++++++++++"};
