/* XPM */
static char * menu_prelight_xpm[] = {
"22 21 13 1",
" 	c None",
".	c #000000",
"+	c #0A0A0A",
"@	c #080808",
"#	c #A7F344",
"$	c #A6F143",
"%	c #A5F044",
"&	c #A0EA44",
"*	c #A1EB44",
"=	c #A2EC44",
"-	c #A4EF43",
";	c #9FE844",
">	c #9CE444",
"......................",
"++++++++++++++++++++++",
"++++++++++++++++++++++",
"++++++++....++++++++++",
"++++++..@@@@..++++++++",
"+++++.@@@@@@@@.+++++++",
"++++.@@@@@@@@@@.++++++",
"++++.@@@@@@@@@@.++++++",
"+++.@@@##$$#%@@@.+++++",
"+++.@@@@@&*@@@@@.+++++",
"+++.@@@@=@@-@@@@.+++++",
"+++.@@@;@@@@>@@@.+++++",
"++++.@@@@@@@@@@.++++++",
"++++.@@@@@@@@@@.++++++",
"+++++.@@@@@@@@.+++++++",
"++++++..@@@@..++++++++",
"++++++++....++++++++++",
"++++++++++++++++++++++",
"++++++++++++++++++++++",
"++++++++++++++++++++++",
"++++++++++++++++++++++"};
