/* XPM */
static char * menu_pressed_xpm[] = {
"22 21 19 1",
" 	c None",
".	c #000000",
"+	c #0A0A0A",
"@	c #90D23F",
"#	c #99DF43",
"$	c #9FE944",
"%	c #9FE844",
"&	c #99DE42",
"*	c #93D741",
"=	c #8DCC3E",
"-	c #92D340",
";	c #99DF42",
">	c #93D640",
",	c #8ECE3F",
"'	c #98DE42",
")	c #9DE543",
"!	c #8ECF3F",
"~	c #608931",
"{	c #5E8530",
"......................",
"++++++++++++++++++++++",
"++++++++++++++++++++++",
"++++++++....++++++++++",
"++++++..++++..++++++++",
"+++++.++++++++.+++++++",
"++++.++++++++++.++++++",
"++++.++++++++++.++++++",
"+++.++........++.+++++",
"+++.++.@#$%&*.++.+++++",
"+++.++..=-;>..++.+++++",
"+++.++.,'..)!.++.+++++",
"++++.+.~....{.+.++++++",
"++++.+...++...+.++++++",
"+++++.++++++++.+++++++",
"++++++..++++..++++++++",
"++++++++....++++++++++",
"++++++++++++++++++++++",
"++++++++++++++++++++++",
"++++++++++++++++++++++",
"++++++++++++++++++++++"};
