/* XPM */
static char * menu_active_xpm[] = {
"22 21 22 1",
" 	c None",
".	c #000000",
"+	c #0A0A0A",
"@	c #D1E0E7",
"#	c #D3E2EB",
"$	c #D2E1E9",
"%	c #D4E2EB",
"&	c #D4E3EC",
"*	c #919C9A",
"=	c #CBD9E1",
"-	c #CBD9E0",
";	c #87928E",
">	c #7D8782",
",	c #D0DEE6",
"'	c #747E76",
")	c #6E776F",
"!	c #CCDBE2",
"~	c #707A73",
"{	c #C5D3D9",
"]	c #717B74",
"^	c #737E77",
"/	c #C9D7DE",
"......................",
"++++++++++++++++++++++",
"++++++++++++++++++++++",
"++++++++....++++++++++",
"++++++..++++..++++++++",
"+++++.++++++++.+++++++",
"++++.++++++++++.++++++",
"++++.++++++++++.++++++",
"+++.+++@#$$%&+++.+++++",
"+++.++++*=-;++++.+++++",
"+++.+++>,')!~+++.+++++",
"+++.+++{]++^/+++.+++++",
"++++.++++++++++.++++++",
"++++.++++++++++.++++++",
"+++++.++++++++.+++++++",
"++++++..++++..++++++++",
"++++++++....++++++++++",
"++++++++++++++++++++++",
"++++++++++++++++++++++",
"++++++++++++++++++++++",
"++++++++++++++++++++++"};
