/* XPM */
static char * title_5_active_xpm[] = {
"10 21 3 1",
" 	c None",
".	c #000000",
"+	c #0A0A0A",
"..........",
"++++++++++",
"++++++++++",
"++++++++++",
"++++++++++",
"++++++++++",
"++++++++++",
"++++++++++",
"++++++++++",
"++++++++++",
"++++++++++",
"++++++++++",
"++++++++++",
"++++++++++",
"++++++++++",
"++++++++++",
"++++++++++",
"++++++++++",
"++++++++++",
"++++++++++",
"++++++++++"};
