/* XPM */
static char * top_left_active_shaded_xpm[] = {
"19 27 10 1",
" 	c None",
".	c #131313",
"+	c #121212",
"@	c #050505",
"#	c #000000",
"$	c #0F0F0F",
"%	c #0A0A0A",
"&	c #0E0E0E",
"*	c #0B0B0B",
"=	c #060606",
"  .+@##############",
" +$%%%%%%%%%%%%%%%%",
"$&*%%%%%%%%%%%%%%%%",
"**%%%%%%%%%%%%%%%%%",
"=%%%%%%%%%%%%%%%%%%",
"#%%%%%%%%%%%%%%%%%%",
"#%%%%%%%%%%%%%%%%%%",
"#%%%%%%%%%%%%%%%%%%",
"#%%%%%%%%%%%%%%%%%%",
"#%%%%%%%%%%%%%%%%%%",
"#%%%%%%%%%%%%%%%%%%",
"#%%%%%%%%%%%%%%%%%%",
"#%%%%%%%%%%%%%%%%%%",
"#%%%%%%%%%%%%%%%%%%",
"#%%%%%%%%%%%%%%%%%%",
"#%%%%%%%%%%%%%%%%%%",
"#%%%%%%%%%%%%%%%%%%",
"#%%%%%%%%%%%%%%%%%%",
"#%%%%%%%%%%%%%%%%%%",
"#%%%%%%%%%%%%%%%%%%",
"#%%%%%%%%%%%%%%%%%%",
"#%%%%%%%%%%%%%%%%%%",
"#%%%%%%%%%%%%%%%%%%",
"#%%%%%%%%%%%%%%%%%%",
"#%%%%%%%%%%%%%%%%%%",
"#%%%%%%%%%%%%%%%%%%",
"#%%%%%%%%%%%%%%%%%%"};
