/* XPM */
static char * top_right_active_shaded_xpm[] = {
"19 27 14 1",
" 	c None",
".	c #000000",
"+	c #040404",
"@	c #050605",
"#	c #0A0A0A",
"$	c #0B0D0D",
"%	c #090A09",
"&	c #040505",
"*	c #0B0B0C",
"=	c #0C0E0F",
"-	c #030404",
";	c #0A0A0B",
">	c #0C0C0D",
",	c #000101",
"................+@ ",
"################$%&",
"################*=-",
"################;>,",
"##################.",
"##################-",
"##################.",
"##################.",
"##################.",
"##################.",
"##################.",
"##################.",
"##################.",
"##################.",
"##################.",
"##################.",
"##################.",
"##################.",
"##################.",
"##################.",
"##################.",
"##################.",
"##################.",
"##################.",
"##################.",
"##################.",
"##################."};
